<svg width="51" height="51" viewBox="0 0 51 51" fill="none" xmlns="http://www.w3.org/2000/svg">
<path fill-rule="evenodd" clip-rule="evenodd" d="M29.068 5.99013C37.5761 5.76004 44.659 12.4556 44.8821 20.9573C45.1176 29.436 38.4003 36.4997 29.8921 36.7298C27.8286 36.7988 25.8581 36.4422 24.0362 35.7519C24.9595 35.9245 25.9138 36.005 26.8867 35.982C34.5149 35.7749 40.532 29.436 40.3275 21.8316C40.123 14.2273 33.7775 8.22198 26.1493 8.42906C22.7721 8.50959 19.7109 9.80958 17.3623 11.8804C20.1013 8.39454 24.3027 6.12818 29.068 5.99013Z" fill="#323D5B"/>
<path fill-rule="evenodd" clip-rule="evenodd" d="M18.2212 39.4106C7.87266 35.5452 2.63021 24.0408 6.51557 13.7099C10.4009 3.39047 21.9331 -1.84401 32.2817 2.03296C34.7914 2.97632 36.9974 4.36834 38.8503 6.07099C37.8216 5.42674 36.7124 4.86303 35.5288 4.42587C26.2522 0.951548 15.9099 5.63382 12.4273 14.8948C8.9509 24.1443 13.648 34.4523 22.9246 37.9266C27.033 39.4682 31.3398 39.4106 35.1818 38.0646C30.1872 40.8947 24.0214 41.585 18.2212 39.4106Z" fill="#95CDFE"/>
<path fill-rule="evenodd" clip-rule="evenodd" d="M3.78911 12.3177C-0.183008 31.0123 9.81236 39.9052 19.9812 42.4476C37.9209 46.9113 52.1424 29.3902 46.3113 10.9717C48.9387 14.8141 50.5313 19.4389 50.6552 24.4318C51.027 38.306 40.0587 49.8679 26.1532 50.2361C12.2415 50.6157 0.665948 39.6636 0.294143 25.7893C0.164011 20.8769 1.45294 16.2522 3.78911 12.3177Z" fill="#FDC526"/>
</svg>
